<?xml version="1.0" encoding="utf-8"?>
<!-- Generated by IcoMoon.io -->
<svg version="1.1" xmlns="http://www.w3.org/2000/svg" xmlns:xlink="http://www.w3.org/1999/xlink" width="1504" height="16" >
<svg class="icons" id="icon-sm4" width="16" height="16" viewBox="0 0 16 16">
<path d="M15.996 16v-0.001h0.004v-5.868c0-2.871-0.618-5.082-3.974-5.082-1.613 0-2.696 0.885-3.138 1.725h-0.047v-1.457h-3.182v10.682h3.313v-5.289c0-1.393 0.264-2.739 1.989-2.739 1.699 0 1.725 1.589 1.725 2.829v5.201h3.31z"></path>
<path d="M0.264 5.318h3.317v10.682h-3.317v-10.682z"></path>
<path d="M1.921-0c-1.061 0-1.921 0.861-1.921 1.921s0.861 1.939 1.921 1.939c1.061 0 1.921-0.879 1.921-1.939s-0.861-1.921-1.921-1.921v0z"></path>
</svg>
<svg class="icons" id="icon-sm3" width="16" height="16" viewBox="0 0 16 16" >
<path d="M10.665 2.657h1.461v-2.544c-0.252-0.035-1.119-0.113-2.128-0.113-2.106 0-3.549 1.325-3.549 3.759v2.241h-2.324v2.844h2.324v7.156h2.849v-7.155h2.23l0.354-2.844h-2.585v-1.959c0.001-0.822 0.222-1.385 1.367-1.385z"></path>
</svg>
<svg class="icons" id="icon-sm2" width="16" height="16" viewBox="0 0 16 16">
<path d="M16 3.039c-0.595 0.261-1.229 0.434-1.89 0.518 0.68-0.406 1.199-1.044 1.443-1.813-0.634 0.378-1.334 0.645-2.080 0.794-0.602-0.641-1.46-1.038-2.396-1.038-1.816 0-3.278 1.474-3.278 3.281 0 0.26 0.022 0.51 0.076 0.748-2.727-0.133-5.14-1.44-6.761-3.431-0.283 0.491-0.449 1.053-0.449 1.658 0 1.136 0.585 2.143 1.457 2.726-0.527-0.010-1.044-0.163-1.482-0.404 0 0.010 0 0.023 0 0.036 0 1.594 1.137 2.918 2.628 3.223-0.267 0.073-0.558 0.108-0.86 0.108-0.21 0-0.422-0.012-0.621-0.056 0.425 1.299 1.631 2.254 3.065 2.285-1.116 0.873-2.533 1.399-4.067 1.399-0.269 0-0.527-0.012-0.785-0.045 1.453 0.937 3.175 1.472 5.032 1.472 6.036 0 9.336-5 9.336-9.334 0-0.145-0.005-0.285-0.012-0.424 0.651-0.462 1.198-1.039 1.644-1.703z"></path>
</svg>
<svg class="icons" id="icon-sm1" width="16" height="16" viewBox="0 0 16 16">
<path d="M15.984 4.704c-0.037-0.85-0.175-1.435-0.372-1.941-0.203-0.538-0.516-1.019-0.925-1.419-0.4-0.406-0.885-0.722-1.416-0.922-0.509-0.197-1.091-0.334-1.941-0.372-0.857-0.041-1.128-0.050-3.301-0.050s-2.444 0.009-3.298 0.047c-0.85 0.037-1.435 0.175-1.941 0.372-0.538 0.203-1.019 0.516-1.419 0.925-0.406 0.4-0.722 0.885-0.922 1.416-0.197 0.51-0.334 1.091-0.372 1.941-0.041 0.856-0.050 1.128-0.050 3.301s0.009 2.444 0.047 3.297c0.037 0.85 0.175 1.435 0.372 1.941 0.203 0.538 0.519 1.019 0.925 1.419 0.4 0.406 0.885 0.722 1.416 0.922 0.51 0.197 1.091 0.334 1.941 0.372 0.853 0.038 1.125 0.047 3.298 0.047s2.444-0.009 3.298-0.047c0.85-0.037 1.435-0.175 1.941-0.372 1.075-0.416 1.925-1.266 2.341-2.341 0.197-0.509 0.334-1.091 0.372-1.941 0.038-0.853 0.047-1.125 0.047-3.297s-0.003-2.444-0.041-3.298zM14.543 11.236c-0.034 0.781-0.166 1.203-0.275 1.485-0.269 0.697-0.822 1.25-1.519 1.519-0.281 0.109-0.706 0.241-1.485 0.275-0.844 0.038-1.097 0.047-3.232 0.047s-2.391-0.009-3.232-0.047c-0.781-0.034-1.203-0.165-1.485-0.275-0.347-0.128-0.663-0.331-0.919-0.597-0.266-0.259-0.469-0.572-0.597-0.919-0.109-0.281-0.241-0.706-0.275-1.485-0.038-0.844-0.047-1.097-0.047-3.232s0.009-2.391 0.047-3.232c0.034-0.781 0.166-1.203 0.275-1.485 0.128-0.347 0.331-0.663 0.6-0.919 0.259-0.266 0.572-0.469 0.919-0.597 0.281-0.109 0.706-0.241 1.485-0.275 0.844-0.037 1.097-0.047 3.232-0.047 2.138 0 2.391 0.009 3.232 0.047 0.781 0.034 1.203 0.166 1.485 0.275 0.347 0.128 0.663 0.331 0.919 0.597 0.266 0.259 0.469 0.572 0.597 0.919 0.109 0.281 0.241 0.706 0.275 1.485 0.037 0.844 0.047 1.097 0.047 3.232s-0.009 2.385-0.047 3.229z"></path>
<path d="M8.030 3.891c-2.269 0-4.11 1.841-4.11 4.11s1.841 4.11 4.11 4.11c2.269 0 4.11-1.841 4.11-4.11s-1.841-4.11-4.11-4.11zM8.030 10.668c-1.472 0-2.666-1.194-2.666-2.666s1.194-2.666 2.666-2.666c1.472 0 2.666 1.194 2.666 2.666s-1.194 2.666-2.666 2.666z"></path>
<path d="M13.262 3.729c0 0.53-0.43 0.96-0.96 0.96s-0.96-0.43-0.96-0.96c0-0.53 0.43-0.96 0.96-0.96s0.96 0.43 0.96 0.96z"></path>
</svg>
<svg id="icon-b4" width="64" height="64" viewBox="0 0 64 64" >
<path fill="#4d5ae5" d="M63.948 9.048c-0.126-0.385-0.459-0.667-0.861-0.725l-3.821-0.556-1.71-3.462c-0.358-0.73-1.554-0.73-1.913 0l-1.71 3.462-3.821 0.556c-0.402 0.059-0.735 0.339-0.862 0.725-0.125 0.386-0.021 0.811 0.27 1.093l2.766 2.696-0.653 3.806c-0.068 0.4 0.096 0.804 0.423 1.043 0.332 0.241 0.765 0.271 1.124 0.081l3.418-1.797 3.418 1.797c0.156 0.082 0.328 0.123 0.497 0.123 0.221 0 0.442-0.068 0.627-0.204 0.328-0.239 0.493-0.643 0.423-1.043l-0.653-3.806 2.766-2.696c0.29-0.284 0.394-0.707 0.27-1.093zM59.022 11.702c-0.251 0.244-0.366 0.598-0.306 0.944l0.382 2.228-2.001-1.052c-0.156-0.082-0.326-0.123-0.497-0.123s-0.34 0.040-0.497 0.123l-2.001 1.052 0.382-2.228c0.060-0.346-0.056-0.699-0.306-0.944l-1.62-1.579 2.238-0.325c0.348-0.050 0.648-0.269 0.803-0.584l1.001-2.027 1.001 2.027c0.156 0.315 0.456 0.533 0.803 0.584l2.238 0.325-1.618 1.579z"></path>
<path fill="#4d5ae5" d="M52.267 41.044h-2.133v2.133h2.133v-2.133z"></path>
<path fill="#4d5ae5" d="M52.267 45.311h-2.133v2.133h2.133v-2.133z"></path>
<path fill="#4d5ae5" d="M54.4 43.178h-2.133v2.133h2.133v-2.133z"></path>
<path fill="#4d5ae5" d="M50.134 43.178h-2.133v2.133h2.133v-2.133z"></path>
<path fill="#4d5ae5" d="M44.8 52.778h-2.133v2.133h2.133v-2.133z"></path>
<path fill="#4d5ae5" d="M44.8 57.045h-2.133v2.133h2.133v-2.133z"></path>
<path fill="#4d5ae5" d="M46.934 54.911h-2.133v2.133h2.133v-2.133z"></path>
<path fill="#4d5ae5" d="M42.667 54.911h-2.133v2.133h2.133v-2.133z"></path>
<path fill="#4d5ae5" d="M32 48.511h-2.133v2.133h2.133v-2.133z"></path>
<path fill="#4d5ae5" d="M32 52.778h-2.133v2.133h2.133v-2.133z"></path>
<path fill="#4d5ae5" d="M34.133 50.645h-2.133v2.133h2.133v-2.133z"></path>
<path fill="#4d5ae5" d="M29.867 50.645h-2.133v2.133h2.133v-2.133z"></path>
<path fill="#4d5ae5" d="M11.733 12.244h-2.133v2.133h2.133v-2.133z"></path>
<path fill="#4d5ae5" d="M11.733 16.511h-2.133v2.133h2.133v-2.133z"></path>
<path fill="#4d5ae5" d="M13.866 14.377h-2.133v2.133h2.133v-2.133z"></path>
<path fill="#4d5ae5" d="M9.6 14.377h-2.133v2.133h2.133v-2.133z"></path>
<path fill="#2e2f42" d="M49.429 28.319c-0.575-0.776-1.419-1.275-2.377-1.409-0.962-0.137-1.911 0.116-2.68 0.704l-2.505 1.92-3.795 2.834-2.716-1.082c4.843-2.173 8.227-7.017 8.227-12.64 0-7.646-6.245-13.867-13.922-13.867s-13.922 6.221-13.922 13.867c0 2.771 0.829 5.348 2.24 7.517l-5.528-0.048c-0.003 0-0.006 0-0.010 0-0.017 0-0.031 0.009-0.047 0.010-0.106 0.004-0.209 0.026-0.31 0.062-0.026 0.010-0.052 0.015-0.077 0.027-0.013 0.005-0.026 0.006-0.038 0.013l-6.466 3.193c-0.001 0-0.002 0-0.002 0.001l-3.787 1.821c-0.042 0.018-0.084 0.043-0.126 0.070-1.509 1.005-2.024 2.978-1.197 4.591 0.441 0.858 1.19 1.489 2.112 1.778 0.355 0.111 0.718 0.165 1.078 0.165 0.579 0 1.153-0.142 1.679-0.422l2.776-1.476 4.528-2.338 2.714-0.016-10.883 10.831c-0.001 0.001-0.002 0.001-0.003 0.002l-2.677 2.667c-0.632 0.629-0.98 1.465-0.98 2.355 0 0.89 0.348 1.727 0.98 2.357 0.65 0.646 1.504 0.971 2.358 0.971 0.856 0 1.709-0.324 2.361-0.971l2.628-2.618 3.482-2.599 1.802 1.794-3.523 3.508c-0.001 0.001-0.002 0.001-0.003 0.002l-2.677 2.667c-0.633 0.629-0.98 1.465-0.98 2.355 0 0.89 0.348 1.727 0.98 2.357 0.65 0.646 1.505 0.971 2.36 0.971s1.71-0.324 2.361-0.971l6.963-6.933c0.001-0.001 0.001-0.002 0.002-0.003l2.019-2-0.008-0.008c0.013-0.013 0.031-0.017 0.044-0.031l10.332-11.316 6.942 0.988c0.050 0.008 0.1 0.011 0.15 0.011 0.129 0 0.254-0.031 0.374-0.077 0.035-0.013 0.066-0.030 0.099-0.047 0.038-0.019 0.079-0.030 0.115-0.054l6.427-4.267c0.023-0.016 0.036-0.042 0.059-0.059 0.026-0.020 0.058-0.029 0.081-0.051l2.543-2.382c1.323-1.24 1.506-3.271 0.424-4.724zM4.261 35.54c-0.347 0.186-0.74 0.223-1.117 0.103-0.373-0.116-0.676-0.371-0.853-0.716-0.322-0.627-0.135-1.391 0.429-1.804l2.627-1.264 0.898 2.625-1.984 1.055zM11.255 31.885l-3.097 1.6-0.878-2.567 4.053-2.001-0.079 2.968zM41.454 18.644c0 1.837-0.438 3.569-1.198 5.119l-8.363-3.798c-0.088-1.147-0.683-2.15-1.577-2.776l2.928-9.721c4.755 1.513 8.209 5.949 8.209 11.176zM17.876 18.644c0-6.469 5.289-11.733 11.789-11.733 0.506 0 1 0.043 1.49 0.104l-2.864 9.507c-0.038-0.001-0.075-0.012-0.114-0.012-2.065 0-3.745 1.675-3.745 3.733s1.68 3.733 3.745 3.733c1.389 0 2.589-0.767 3.236-1.889l7.725 3.509c-2.149 2.893-5.589 4.78-9.473 4.78-6.5 0-11.789-5.264-11.789-11.734zM29.789 20.244c0 0.882-0.723 1.6-1.612 1.6s-1.612-0.718-1.612-1.6c0-0.882 0.723-1.6 1.612-1.6s1.612 0.718 1.612 1.6zM4.93 50.292c-0.473 0.468-1.237 0.467-1.709 0.001-0.227-0.227-0.352-0.527-0.352-0.846 0-0.318 0.125-0.618 0.352-0.843l1.924-1.917 1.702 1.695-1.918 1.909zM11.357 57.759c-0.473 0.468-1.238 0.469-1.71 0.001-0.227-0.227-0.352-0.527-0.352-0.846 0-0.318 0.125-0.618 0.352-0.843l1.925-1.918 1.704 1.695-1.919 1.91zM18.321 50.822c-0.001 0.001-0.002 0.001-0.003 0.002l-3.53 3.52-1.704-1.695 3.527-3.51c0 0 0 0 0-0.001 0.001-0.001 0.002-0.001 0.003-0.002 0.080-0.080 0.13-0.176 0.179-0.271 0.014-0.028 0.041-0.051 0.052-0.080 0.033-0.082 0.038-0.171 0.051-0.257 0.006-0.049 0.028-0.095 0.028-0.145 0-0.072-0.026-0.141-0.041-0.211-0.013-0.064-0.013-0.129-0.037-0.191-0.041-0.1-0.11-0.189-0.182-0.275-0.020-0.023-0.028-0.053-0.050-0.076 0 0 0 0-0.001 0s-0.001-0.003-0.002-0.004l-3.214-3.2c-0.034-0.034-0.078-0.048-0.116-0.077-0.056-0.044-0.111-0.084-0.174-0.115-0.061-0.030-0.123-0.048-0.187-0.065-0.068-0.019-0.134-0.034-0.206-0.039-0.065-0.004-0.126 0.002-0.191 0.010-0.072 0.008-0.139 0.018-0.208 0.041-0.067 0.021-0.127 0.054-0.189 0.090-0.040 0.022-0.084 0.030-0.122 0.058l-3.547 2.648-1.802-1.794 4.798-4.772 8.721 8.577-1.855 1.838zM31.958 36.788c-0.031-0.004-0.060 0.008-0.091 0.005-0.078-0.004-0.152 0.001-0.23 0.014-0.061 0.011-0.118 0.022-0.176 0.043-0.068 0.023-0.13 0.056-0.193 0.094-0.060 0.036-0.114 0.075-0.166 0.123-0.026 0.022-0.056 0.033-0.080 0.059l-9.397 10.291-8.656-8.513 5.666-5.636c0.417-0.416 0.419-1.091 0.003-1.509-0.21-0.21-0.486-0.314-0.763-0.313v-0.001l-4.437 0.027 0.056-3.215 6.208 0.053c2.53 2.588 6.059 4.202 9.963 4.202 0.875 0 1.728-0.091 2.559-0.245 0.080 0.064 0.159 0.129 0.259 0.17l4.819 1.92 0.305 1.517 0.356 1.771-6.005-0.854zM40.041 37.145l-0.626-3.116 2.893-2.16 1.893 2.513-4.16 2.763zM47.548 31.483l-1.676 1.57-1.862-2.473 1.663-1.275c0.31-0.239 0.702-0.336 1.086-0.286 0.386 0.054 0.727 0.256 0.96 0.569 0.433 0.584 0.359 1.397-0.171 1.894z"></path>
<path fill="#2e2f42" d="M27.204 37.088l-4.286-4.267c-0.415-0.415-1.089-0.415-1.505 0l-4.285 4.267c-0.201 0.202-0.314 0.472-0.314 0.756s0.112 0.556 0.314 0.756l4.285 4.267c0.208 0.207 0.481 0.31 0.753 0.31s0.545-0.103 0.752-0.31l4.286-4.267c0.201-0.2 0.315-0.472 0.315-0.756s-0.113-0.556-0.315-0.756zM22.166 40.606l-2.773-2.762 2.773-2.762 2.774 2.762-2.774 2.762z"></path>
<path fill="#2e2f42" d="M34.328 10.142l-0.515 2.072c0.142 0.035 3.475 0.903 3.475 4.298h2.133c-0-4.034-3.331-5.931-5.093-6.369z"></path>
<path fill="#2e2f42" d="M39.422 18.644h-2.133v2.134h2.133v-2.134z"></path>
</svg>
<svg id="icon-b3" width="64" height="64" viewBox="0 0 64 64" >
<path fill="#4d5ae5" d="M29.851 29.929h2.132v9.595h-2.132v-9.595z"></path>
<path fill="#4d5ae5" d="M38.38 34.194h2.132v5.331h-2.132v-5.331z"></path>
<path fill="#4d5ae5" d="M21.322 37.392h2.132v2.132h-2.132v-2.132z"></path>
<path fill="#4d5ae5" d="M14.925 36.326h2.132v3.198h-2.132v-3.198z"></path>
<path fill="#2e2f42" d="M3.198 56.582h51.173c1.766 0 3.198-1.432 3.198-3.198v-4.264c0-1.766-1.432-3.198-3.198-3.198h-1.066v-26.587l6.056-5.737c1.405 0.693 3.107 0.272 4.026-0.997s0.791-3.017-0.305-4.137-2.84-1.287-4.13-0.396c-1.289 0.892-1.747 2.584-1.085 4.004l-4.563 4.325v-2.46c0-1.766-1.432-3.198-3.198-3.198h-42.644c-1.766 0-3.198 1.432-3.198 3.198v31.983h-1.066c-1.766 0-3.198 1.432-3.198 3.198v4.264c0 1.766 1.432 3.198 3.198 3.198zM60.768 9.673c0.589 0 1.066 0.477 1.066 1.066s-0.477 1.066-1.066 1.066c-0.589 0-1.066-0.477-1.066-1.066s0.477-1.066 1.066-1.066zM6.397 13.938c0-0.589 0.477-1.066 1.066-1.066h42.644c0.589 0 1.066 0.477 1.066 1.066v4.477l-2.132 2.026v-4.371c0-0.589-0.477-1.066-1.066-1.066h-38.38c-0.589 0-1.066 0.477-1.066 1.066v26.653c0 0.589 0.477 1.066 1.066 1.066h38.38c0.589 0 1.066-0.477 1.066-1.066v-19.349l2.132-2.020v24.567h-44.777v-31.983zM15.992 27.797c-1.442-0.004-2.709 0.957-3.093 2.347s0.21 2.865 1.451 3.601c1.24 0.736 2.82 0.551 3.856-0.452l3.706 1.859c0.43 0.215 0.953 0.114 1.273-0.245l7.878-8.863 7.744 5.803c0.415 0.311 0.995 0.278 1.372-0.079l6.73-6.375v16.262h-36.248v-24.52h36.248v5.321l-7.543 7.143-7.809-5.854c-0.444-0.332-1.068-0.27-1.436 0.144l-7.986 8.985-2.985-1.493c0.022-0.128 0.035-0.257 0.041-0.387 0-1.766-1.432-3.198-3.198-3.198zM17.058 30.995c0 0.589-0.477 1.066-1.066 1.066s-1.066-0.477-1.066-1.066c0-0.589 0.477-1.066 1.066-1.066s1.066 0.477 1.066 1.066zM23.454 48.053h10.661v1.066c0 0.589-0.477 1.066-1.066 1.066h-8.529c-0.589 0-1.066-0.477-1.066-1.066v-1.066zM2.132 49.119c0-0.589 0.477-1.066 1.066-1.066h18.124v1.066c0 1.766 1.432 3.198 3.198 3.198h8.529c1.766 0 3.198-1.432 3.198-3.198v-1.066h18.124c0.589 0 1.066 0.477 1.066 1.066v4.264c0 0.589-0.477 1.066-1.066 1.066h-51.173c-0.589 0-1.066-0.477-1.066-1.066v-4.264z"></path>
</svg>
<svg id="icon-b2" width="64" height="64" viewBox="0 0 64 64" >
<path fill="#2e2f42" d="M62.593 30.602c-0.003-16.905-13.711-30.606-30.616-30.602s-30.606 13.711-30.602 30.616c0.003 13.316 8.614 25.102 21.299 29.152 0.121 0.038 0.247 0.058 0.374 0.057 0.241-0.001 0.477-0.065 0.685-0.188 0.27-0.16 0.472-0.414 0.566-0.713l7.73-24.5c2.113-0.011 3.817-1.733 3.806-3.846s-1.733-3.817-3.846-3.807c-0.568 0.002-1.129 0.133-1.64 0.383l-10.212-10.213c-0.507-0.489-1.314-0.475-1.803 0.031-0.478 0.495-0.478 1.278 0 1.773l10.206 10.218c-0.783 1.599-0.335 3.528 1.073 4.618l-7.365 23.346c-14.556-5.362-22.009-21.508-16.647-36.063s21.508-22.009 36.063-16.647c14.556 5.362 22.009 21.508 16.647 36.063-2.62 7.111-8.002 12.862-14.924 15.947l-0.796-3.748c-0.145-0.689-0.823-1.129-1.512-0.983-0.217 0.046-0.419 0.148-0.585 0.296l-7.674 6.851c-0.526 0.468-0.573 1.274-0.105 1.801 0.152 0.171 0.348 0.298 0.566 0.368l9.797 3.127c0.67 0.215 1.389-0.153 1.604-0.824 0.068-0.212 0.080-0.438 0.034-0.655l-0.782-3.678c11.329-4.776 18.684-15.884 18.658-28.178zM31.984 29.327c0.704 0 1.275 0.571 1.275 1.275s-0.571 1.275-1.275 1.275c-0.705 0-1.275-0.571-1.275-1.275s0.571-1.275 1.275-1.275zM36.185 59.055l4.368-3.897 1.206 5.681-5.574-1.784z"></path>
<path fill="#4d5ae5" d="M30.709 6.37v2.551c0 0.705 0.571 1.275 1.275 1.275s1.275-0.571 1.275-1.275v-2.551c0-0.704-0.571-1.275-1.275-1.275s-1.275 0.571-1.275 1.275z"></path>
<path fill="#4d5ae5" d="M7.752 29.327c-0.705 0-1.275 0.571-1.275 1.275s0.571 1.275 1.275 1.275h2.551c0.705 0 1.275-0.571 1.275-1.275s-0.571-1.275-1.275-1.275h-2.551z"></path>
<path fill="#4d5ae5" d="M56.216 31.878c0.705 0 1.275-0.571 1.275-1.275s-0.571-1.275-1.275-1.275h-2.551c-0.704 0-1.275 0.571-1.275 1.275s0.571 1.275 1.275 1.275h2.551z"></path>
</svg>
<svg id="icon-b1" width="64" height="64" viewBox="0 0 64 64">
<path fill="#2e2f42" d="M61.546 44.195l-16.886-17.010 1.874-9.231c0.484 0.189 0.998 0.288 1.517 0.291h0.013c2.385 0.028 4.34-1.882 4.369-4.267s-1.882-4.34-4.267-4.369c-2.385-0.028-4.34 1.882-4.369 4.267-0.006 0.51 0.078 1.017 0.249 1.498l-9.92 1.211-16.181-16.266c-0.198-0.203-0.47-0.318-0.753-0.32-0.28 0.001-0.548 0.113-0.747 0.31l-3.025 3.008c-0.416 0.417-0.416 1.092 0 1.508l1.628 1.651c-6.306 11.596-4.258 25.956 5.039 35.326 0.085 0.082 0.184 0.148 0.292 0.195-0.067 0.361-0.102 0.727-0.105 1.094v12.373h-12.8c-2.944 0.003-5.33 2.389-5.333 5.333v2.133c0 0.589 0.478 1.067 1.067 1.067h49.067c0.589 0 1.067-0.478 1.067-1.067v-2.133c-0.004-2.944-2.389-5.33-5.333-5.333h-12.8v-5.484c2.005 0.421 4.048 0.635 6.097 0.64 4.916-0.005 9.754-1.231 14.080-3.567l1.636 1.646c0.199 0.203 0.469 0.318 0.753 0.32 0.28-0.002 0.548-0.113 0.747-0.31l3.025-3.008c0.416-0.417 0.416-1.092 0-1.508zM46.56 12.466c0.835-0.831 2.186-0.827 3.017 0.008s0.827 2.186-0.008 3.017c-0.4 0.398-0.941 0.621-1.505 0.621h-0.006c-1.178-0.006-2.128-0.966-2.122-2.144 0.003-0.564 0.229-1.104 0.629-1.502h-0.004zM44.049 19.475l-1.197 5.891-2.351-2.365 3.548-3.526zM42.837 17.672l-3.84 3.818-2.971-2.987 6.811-0.831zM48.008 57.6c1.767 0 3.2 1.433 3.2 3.2v1.067h-46.933v-1.067c0-1.767 1.433-3.2 3.2-3.2h40.533zM33.075 53.333v2.133h-10.667v-2.133h10.667zM22.408 51.2v-8.107c0-2.588 2.393-4.693 5.333-4.693s5.333 2.106 5.333 4.693v8.107h-10.667zM35.208 47.808v-4.715c0-3.764-3.349-6.827-7.467-6.827-2.662-0.041-5.151 1.314-6.562 3.572-8.115-8.548-9.943-21.29-4.557-31.774l37.204 37.417c-5.745 2.922-12.33 3.745-18.618 2.326zM57.786 46.441l-42.114-42.362 1.509-1.504 15.87 15.96c0.008 0 0.012 0.014 0.019 0.019l26.229 26.383-1.514 1.504z"></path>
<path fill="#4d5ae5" d="M27.751 40.533h-0.010c-1.767-0.003-3.202 1.428-3.205 3.195s1.428 3.202 3.195 3.205h0.010c1.767 0.003 3.202-1.428 3.205-3.195s-1.428-3.202-3.195-3.205zM28.498 44.49c-0.201 0.2-0.473 0.311-0.756 0.31-0.589-0.003-1.064-0.483-1.061-1.072 0.002-0.282 0.115-0.552 0.314-0.751 0.199-0.197 0.467-0.309 0.747-0.31 0.589 0.003 1.064 0.483 1.061 1.072-0.002 0.282-0.115 0.552-0.314 0.751h0.010z"></path>
</svg>
<svg id="icon-pp3" width="18" height="24">
<path d="M11.25 4.5h-9c-0.619 0-1.119 0.506-1.119 1.125l-0.006 6.75c0 0.619 0.506 1.125 1.125 1.125h9c0.619 0 1.125-0.506 1.125-1.125v-6.75c0-0.619-0.506-1.125-1.125-1.125zM11.025 6.891l-3.977 2.486c-0.18 0.112-0.416 0.112-0.596 0l-3.977-2.486c-0.141-0.090-0.225-0.242-0.225-0.405 0-0.377 0.411-0.602 0.731-0.405l3.769 2.357 3.769-2.357c0.321-0.197 0.731 0.028 0.731 0.405 0 0.163-0.084 0.315-0.225 0.405z"></path>
</svg>
<svg id="icon-pp2" width="18" height="24" >
<path d="M11.045 10.399l-1.379-0.157c-0.331-0.038-0.657 0.076-0.89 0.309l-0.999 0.999c-1.536-0.782-2.795-2.035-3.577-3.577l1.004-1.004c0.233-0.233 0.347-0.559 0.309-0.89l-0.157-1.368c-0.065-0.548-0.526-0.961-1.080-0.961h-0.939c-0.613 0-1.124 0.51-1.086 1.124 0.288 4.635 3.995 8.337 8.624 8.624 0.613 0.038 1.124-0.472 1.124-1.085v-0.939c0.005-0.548-0.407-1.009-0.955-1.075z"></path>
</svg>
<svg id="icon-pp1" width="18" height="18" >
<path d="M9 9c1.657 0 3-1.342 3-3s-1.342-3-3-3c-1.657 0-3 1.342-3 3s1.342 3 3 3zM9 10.5c-2.003 0-6 1.005-6 3v0.75c0 0.413 0.337 0.75 0.75 0.75h10.5c0.413 0 0.75-0.338 0.75-0.75v-0.75c0-1.995-3.997-3-6-3z"></path>
</svg>
<svg id="icon-chk">
  <path d="M8.44558 0.255056C8.61838 0.089653 8.84834 -0.00178848 9.08693 2.65108e-05C9.32551 0.0018415 9.55407 0.0967713 9.72436 0.264784C9.89466 0.432797 9.99337 0.660752 9.99968 0.900549C10.006 1.14034 9.91939 1.37323 9.75816 1.55005L4.86357 7.70436C4.7794 7.79551 4.67782 7.86865 4.5649 7.91942C4.45198 7.97018 4.33003 7.99754 4.20636 7.99984C4.08268 8.00214 3.95981 7.97935 3.8451 7.93282C3.73038 7.88629 3.62618 7.81698 3.53872 7.72903L0.292827 4.46564C0.202435 4.38096 0.129933 4.27884 0.0796475 4.16537C0.0293621 4.05191 0.00232279 3.92942 0.000143182 3.80522C-0.00203643 3.68102 0.0206883 3.55765 0.0669613 3.44248C0.113234 3.3273 0.182108 3.22267 0.269473 3.13483C0.356838 3.047 0.460905 2.97775 0.575465 2.93123C0.690026 2.88471 0.812734 2.86186 0.936267 2.86405C1.0598 2.86624 1.18163 2.89343 1.29449 2.94398C1.40734 2.99454 1.50892 3.06743 1.59315 3.15831L4.16189 5.73967L8.42227 0.28219C8.42994 0.272694 8.43813 0.263635 8.4468 0.255056H8.44558Z" fill="#F4F4FD" />
</svg>
<svg id="icon-fsm4" width="24" height="24" viewBox="0 0 24 24" >
<path fill="#f4f4fd" d="M23.994 24v-0.001h0.006v-8.802c0-4.306-0.927-7.623-5.961-7.623-2.42 0-4.044 1.328-4.707 2.587h-0.070v-2.185h-4.773v16.023h4.97v-7.934c0-2.089 0.396-4.109 2.983-4.109 2.549 0 2.587 2.384 2.587 4.243v7.801h4.965z"></path>
<path fill="#f4f4fd" d="M0.396 7.977h4.976v16.023h-4.976v-16.023z"></path>
<path fill="#f4f4fd" d="M2.882-0c-1.591 0-2.882 1.291-2.882 2.882s1.291 2.909 2.882 2.909c1.591 0 2.882-1.318 2.882-2.909-0.001-1.591-1.292-2.882-2.882-2.882v0z"></path>
</svg>
<svg id="icon-fsm3" width="24" height="24" viewBox="0 0 24 24" >
<path fill="#f4f4fd" d="M15.997 3.985h2.191v-3.816c-0.378-0.052-1.678-0.169-3.192-0.169-3.159 0-5.323 1.987-5.323 5.639v3.361h-3.486v4.266h3.486v10.734h4.274v-10.733h3.345l0.531-4.266h-3.877v-2.939c0.001-1.233 0.333-2.077 2.051-2.077z"></path>
</svg>
<svg id="icon-fsm2" width="24" height="24" viewBox="0 0 24 24" >
<path fill="#f4f4fd" d="M24 4.558c-0.893 0.391-1.843 0.651-2.835 0.777 1.020-0.609 1.799-1.566 2.165-2.72-0.951 0.567-2.001 0.967-3.12 1.191-0.903-0.962-2.19-1.557-3.594-1.557-2.724 0-4.917 2.211-4.917 4.921 0 0.39 0.033 0.765 0.114 1.122-4.090-0.2-7.71-2.16-10.142-5.146-0.424 0.737-0.674 1.579-0.674 2.487 0 1.704 0.877 3.214 2.186 4.089-0.791-0.015-1.566-0.245-2.223-0.606 0 0.015 0 0.034 0 0.054 0 2.391 1.705 4.377 3.942 4.835-0.401 0.11-0.837 0.162-1.29 0.162-0.315 0-0.633-0.018-0.931-0.084 0.637 1.948 2.447 3.381 4.597 3.427-1.674 1.309-3.8 2.099-6.101 2.099-0.403 0-0.79-0.018-1.177-0.068 2.18 1.405 4.762 2.208 7.548 2.208 9.054 0 14.004-7.5 14.004-14.001 0-0.217-0.008-0.428-0.018-0.636 0.976-0.693 1.797-1.558 2.466-2.554z"></path>
</svg>
<svg id="icon-fsm1" width="24" height="24" viewBox="0 0 24 24" >
<path fill="#f4f4fd" d="M23.976 7.056c-0.056-1.275-0.263-2.152-0.558-2.912-0.305-0.806-0.774-1.528-1.388-2.128-0.6-0.609-1.327-1.083-2.124-1.383-0.764-0.295-1.636-0.502-2.912-0.558-1.285-0.061-1.693-0.075-4.951-0.075s-3.666 0.014-4.946 0.070c-1.275 0.056-2.152 0.263-2.911 0.558-0.807 0.305-1.528 0.774-2.129 1.388-0.609 0.6-1.083 1.327-1.383 2.124-0.295 0.764-0.502 1.636-0.558 2.911-0.061 1.285-0.075 1.693-0.075 4.951s0.014 3.666 0.070 4.946c0.056 1.275 0.263 2.152 0.558 2.912 0.305 0.806 0.778 1.528 1.388 2.129 0.6 0.609 1.327 1.083 2.124 1.383 0.764 0.295 1.636 0.502 2.912 0.558 1.28 0.056 1.688 0.070 4.946 0.070s3.666-0.014 4.946-0.070c1.275-0.056 2.152-0.263 2.911-0.558 1.613-0.624 2.888-1.899 3.512-3.511 0.295-0.764 0.502-1.636 0.558-2.912 0.056-1.28 0.070-1.688 0.070-4.946s-0.005-3.666-0.061-4.946zM21.815 16.855c-0.052 1.172-0.249 1.805-0.413 2.227-0.403 1.046-1.233 1.875-2.279 2.279-0.422 0.164-1.059 0.361-2.227 0.412-1.266 0.056-1.646 0.070-4.848 0.070s-3.587-0.014-4.848-0.070c-1.172-0.051-1.805-0.248-2.227-0.412-0.52-0.192-0.994-0.497-1.378-0.896-0.399-0.389-0.703-0.858-0.896-1.378-0.164-0.422-0.361-1.060-0.412-2.227-0.056-1.266-0.070-1.646-0.070-4.848s0.014-3.587 0.070-4.848c0.051-1.172 0.248-1.805 0.412-2.227 0.192-0.52 0.497-0.994 0.9-1.378 0.389-0.399 0.858-0.703 1.378-0.895 0.422-0.164 1.060-0.361 2.227-0.413 1.266-0.056 1.646-0.070 4.848-0.070 3.207 0 3.587 0.014 4.848 0.070 1.172 0.052 1.805 0.249 2.227 0.413 0.52 0.192 0.994 0.497 1.378 0.895 0.398 0.389 0.703 0.858 0.895 1.378 0.164 0.422 0.361 1.059 0.413 2.227 0.056 1.266 0.070 1.646 0.070 4.848s-0.014 3.577-0.070 4.843z"></path>
<path fill="#f4f4fd" d="M12.045 5.837c-3.404 0-6.165 2.761-6.165 6.165s2.762 6.165 6.165 6.165c3.404 0 6.165-2.761 6.165-6.165s-2.761-6.165-6.165-6.165zM12.045 16.001c-2.208 0-3.999-1.791-3.999-3.999s1.791-3.999 3.999-3.999c2.208 0 3.999 1.791 3.999 3.999s-1.791 3.999-3.999 3.999z"></path>
<path fill="#f4f4fd" d="M19.893 5.593c0 0.795-0.644 1.439-1.439 1.439s-1.439-0.644-1.439-1.439c0-0.795 0.645-1.439 1.439-1.439s1.439 0.644 1.439 1.439z"></path>
</svg>
<svg id="icon-Frame-3" width="24" height="24" viewBox="0 0 24 24" x="0" y="0">
<path fill="#fff" d="M24 2l-24 11.25 7.67 2.367 11.83-9.242-8.998 10.116 0.007 0.002-0.009-0.002v5.509l4.301-4.182 5.449 1.682 3.75-17.5z"></path>
</svg>
<svg id="icon-close" width="8" height="8">
<path d="M8 0.806l-0.806-0.806-3.194 3.194-3.194-3.194-0.806 0.806 3.194 3.194-3.194 3.194 0.806 0.806 3.194-3.194 3.194 3.194 0.806-0.806-3.194-3.194 3.194-3.194z"></path>
</svg>
</svg>
